<?xml version="1.0" encoding="UTF-8"?>
<!DOCTYPE svg PUBLIC "-//W3C//DTD SVG 1.1//EN" "http://www.w3.org/Graphics/SVG/1.1/DTD/svg11.dtd">
<svg xmlns="http://www.w3.org/2000/svg" version="1.1" width="140px" height="58px" style="shape-rendering:geometricPrecision fill:red; text-rendering:geometricPrecision; image-rendering:optimizeQuality; fill-rule:evenodd; clip-rule:evenodd" xmlns:xlink="http://www.w3.org/1999/xlink">
<g><path  fill="white" d="M 127.5,-0.5 C 129.167,-0.5 130.833,-0.5 132.5,-0.5C 132.5,1.83333 132.5,4.16667 132.5,6.5C 134.833,6.5 137.167,6.5 139.5,6.5C 139.5,8.16667 139.5,9.83333 139.5,11.5C 137.167,11.5 134.833,11.5 132.5,11.5C 132.5,14.1667 132.5,16.8333 132.5,19.5C 130.833,19.5 129.167,19.5 127.5,19.5C 127.5,16.8333 127.5,14.1667 127.5,11.5C 124.833,11.5 122.167,11.5 119.5,11.5C 119.5,9.83333 119.5,8.16667 119.5,6.5C 122.167,6.5 124.833,6.5 127.5,6.5C 127.5,4.16667 127.5,1.83333 127.5,-0.5 Z"/></g>
<g><path  fill="white" d="M -0.5,26.5 C -0.5,25.5 -0.5,24.5 -0.5,23.5C 2.29709,21.205 4.96376,18.705 7.5,16C 5.19018,15.5034 2.85684,15.3367 0.5,15.5C 0.5,13.5 0.5,11.5 0.5,9.5C 3.16667,9.5 5.83333,9.5 8.5,9.5C 8.5,8.5 8.5,7.5 8.5,6.5C 10.8333,6.5 13.1667,6.5 15.5,6.5C 15.5,7.5 15.5,8.5 15.5,9.5C 18.1667,9.5 20.8333,9.5 23.5,9.5C 23.5,11.5 23.5,13.5 23.5,15.5C 21.4727,15.3379 19.4727,15.5045 17.5,16C 19,17.5 20.5,19 22,20.5C 22.49,19.2068 22.6567,17.8734 22.5,16.5C 24.5,16.5 26.5,16.5 28.5,16.5C 28.5,13.8333 28.5,11.1667 28.5,8.5C 30.5,8.5 32.5,8.5 34.5,8.5C 34.5,18.5 34.5,28.5 34.5,38.5C 32.5,38.5 30.5,38.5 28.5,38.5C 28.5,33.1667 28.5,27.8333 28.5,22.5C 26.8008,22.3398 25.1341,22.5065 23.5,23C 24.1667,23.6667 24.8333,24.3333 25.5,25C 24,26.5 22.5,28 21,29.5C 17.9559,26.6247 15.1226,23.6247 12.5,20.5C 9.21302,23.076 6.37969,26.076 4,29.5C 2.72917,28.1175 1.22917,27.1175 -0.5,26.5 Z"/></g>
<g><path  fill="white" d="M 113.5,57.5 C 105.833,57.5 98.1667,57.5 90.5,57.5C 90.5,51.1667 90.5,44.8333 90.5,38.5C 92.5,38.5 94.5,38.5 96.5,38.5C 96.5,40.1667 96.5,41.8333 96.5,43.5C 99.8333,43.5 103.167,43.5 106.5,43.5C 106.5,36.5 106.5,29.5 106.5,22.5C 104.396,22.2011 102.396,22.5344 100.5,23.5C 98.6022,27.7898 95.2688,30.1232 90.5,30.5C 80.7822,28.0678 77.6156,22.0678 81,12.5C 85.2725,7.53626 90.4392,6.36959 96.5,9C 98.7411,10.7391 100.408,12.9058 101.5,15.5C 103.045,16.4519 104.712,16.7852 106.5,16.5C 106.5,13.8333 106.5,11.1667 106.5,8.5C 108.833,8.5 111.167,8.5 113.5,8.5C 113.5,24.8333 113.5,41.1667 113.5,57.5 Z M 88.5,14.5 C 91.9902,14.1506 94.3235,15.6506 95.5,19C 93.7174,23.7072 90.8841,24.5405 87,21.5C 86.1668,18.829 86.6668,16.4957 88.5,14.5 Z M 96.5,49.5 C 99.8333,49.5 103.167,49.5 106.5,49.5C 106.5,50.5 106.5,51.5 106.5,52.5C 103.167,52.5 99.8333,52.5 96.5,52.5C 96.5,51.5 96.5,50.5 96.5,49.5 Z"/></g>
<g><path  fill="white" d="M 37.5,8.5 C 39.8333,8.5 42.1667,8.5 44.5,8.5C 44.5,18.5 44.5,28.5 44.5,38.5C 42.1667,38.5 39.8333,38.5 37.5,38.5C 37.5,28.5 37.5,18.5 37.5,8.5 Z"/></g>
<g><path  fill="white" d="M 50.5,9.5 C 58.1667,9.5 65.8333,9.5 73.5,9.5C 73.5,15.8333 73.5,22.1667 73.5,28.5C 71.1667,28.5 68.8333,28.5 66.5,28.5C 66.5,27.1667 66.5,25.8333 66.5,24.5C 61.1667,24.5 55.8333,24.5 50.5,24.5C 50.5,22.5 50.5,20.5 50.5,18.5C 55.8333,18.5 61.1667,18.5 66.5,18.5C 66.5,17.5 66.5,16.5 66.5,15.5C 61.1667,15.5 55.8333,15.5 50.5,15.5C 50.5,13.5 50.5,11.5 50.5,9.5 Z"/></g>
<g><path  fill="white" d="M 47.5,30.5 C 56.8333,30.5 66.1667,30.5 75.5,30.5C 75.5,32.5 75.5,34.5 75.5,36.5C 66.1667,36.5 56.8333,36.5 47.5,36.5C 47.5,34.5 47.5,32.5 47.5,30.5 Z"/></g>
</svg>
