<svg xmlns="http://www.w3.org/2000/svg" width="12" height="9.333" viewBox="0 0 14 9.333">
  <g id="그룹_79442" data-name="그룹 79442" transform="translate(-2673.276 1958.972)">
    <g id="그룹_79441" data-name="그룹 79441" transform="translate(0 -1.792)">
      <path id="패스_39780" data-name="패스 39780" d="M283.832,1305.556a1.276,1.276,0,0,1-.886-.35l-4.237-4.1a1.062,1.062,0,0,1,.044-1.59,1.3,1.3,0,0,1,1.729.041l3.35,3.242,6.431-6.227a1.3,1.3,0,0,1,1.729-.041,1.062,1.062,0,0,1,.044,1.59l-7.318,7.084A1.275,1.275,0,0,1,283.832,1305.556Z" transform="translate(2394.903 -3253.403)" fill="white"/>
    </g>
  </g>
</svg>
